<?xml version="1.0" encoding="UTF-8" standalone="no"?>
<!DOCTYPE svg PUBLIC "-//W3C//DTD SVG 20010904//EN" "http://www.w3.org/TR/2001/REC-SVG-20010904/DTD/svg10.dtd">
<svg version="1.0" xmlns="http://www.w3.org/2000/svg" width="512.000000pt" height="512.000000pt" viewBox="0 0 512.000000 512.000000" preserveAspectRatio="xMidYMid meet">

<g transform="translate(0.000000,512.000000) scale(0.100000,-0.100000)" fill="#000000" stroke="none">
<path d="M2321 5110 c-497 -48 -990 -251 -1376 -565 -114 -92 -294 -274 -384 -387 -229 -287 -417 -675 -495 -1023 -49 -218 -60 -325 -60 -575 0 -250 11 -357 60 -575 79 -355 272 -749 509 -1040 92 -114 274 -294 387 -384 287 -229 675 -417 1023 -495 218 -49 325 -60 575 -60 250 0 357 11 575 60 261 58 603 204 828 353 389 259 688 599 893 1016 125 255 196 484 241 775 24 161 24 539 0 700 -45 291 -116 520 -241 775 -134 272 -283 480 -498 692 -211 209 -404 346 -673 478 -252 124 -486 197 -765 240 -126 19 -468 27 -599 15z m-591 -897 c5 -21 36 -134 68 -252 l59 -215 17 65 c9 35 39 147 65 249 l48 185 96 3 c54 1 97 0 97 -4 0 -4 -52 -178 -115 -387 l-115 -379 0 -259 0 -259 -95 0 -95 0 0 261 c0 311 1 303 -145 739 -52 157 -95 286 -95 288 0 1 45 2 100 2 l99 0 11 -37z m801 -295 c56 -16 112 -69 140 -130 24 -52 24 -58 24 -348 0 -290 0 -296 -24 -348 -42 -92 -121 -142 -226 -142 -70 0 -121 19 -169 62 -77 67 -80 83 -84 406 -3 237 -1 291 13 337 39 137 180 207 326 163z m489 -391 c0 -292 3 -396 12 -405 23 -23 66 -14 103 23 l35 36 0 369 0 370 90 0 90 0 0 -480 0 -480 -90 0 -90 0 0 51 0 52 -46 -42 c-54 -51 -99 -71 -156 -71 -53 0 -85 21 -106 69 -14 31 -17 99 -20 469 l-4 432 91 0 91 0 0 -393z m160 -677 c463 -21 555 -39 654 -130 60 -55 92 -124 116 -246 53 -273 53 -930 0 -1214 -25 -131 -56 -195 -125 -259 -79 -72 -129 -87 -352 -108 -278 -26 -1548 -26 -1826 0 -225 21 -278 38 -354 110 -67 63 -98 128 -123 253 -68 351 -45 1171 38 1355 30 68 95 134 166 169 54 27 85 34 202 46 77 8 222 18 324 23 275 12 1011 12 1280 1z"/>
<path d="M2412 3769 c-46 -18 -52 -58 -52 -327 0 -148 4 -261 10 -279 21 -59 96 -71 134 -20 19 26 21 44 25 239 4 256 -3 330 -32 363 -27 28 -54 37 -85 24z"/>
<path d="M1342 2463 l3 -88 103 -3 102 -3 0 -549 0 -550 95 0 95 0 0 550 0 550 105 0 105 0 0 90 0 90 -305 0 -306 0 3 -87z"/>
<path d="M2620 1910 l0 -640 85 0 85 0 0 47 0 47 38 -36 c95 -93 208 -88 266 12 20 34 21 50 21 405 0 362 0 371 -22 411 -29 54 -65 76 -123 76 -53 0 -101 -21 -147 -65 l-33 -31 0 207 0 207 -85 0 -85 0 0 -640z m290 160 c34 -18 40 -65 40 -329 0 -238 -2 -258 -20 -288 -16 -27 -26 -33 -54 -33 -19 0 -45 9 -60 21 l-26 20 0 289 0 289 26 20 c29 23 64 27 94 11z"/>
<path d="M3463 2230 c-55 -11 -91 -31 -130 -72 -64 -66 -67 -85 -71 -375 -4 -296 3 -348 51 -419 78 -113 258 -137 373 -49 49 37 81 115 87 208 l4 77 -89 0 -88 0 0 -50 c0 -67 -22 -118 -53 -125 -43 -11 -71 -1 -94 34 -21 30 -23 46 -23 147 l0 114 177 0 176 0 -6 148 c-7 166 -23 230 -67 284 -53 64 -155 96 -247 78z m108 -176 c21 -22 24 -37 28 -110 l3 -84 -86 0 -86 0 0 65 c0 72 18 127 47 144 31 18 68 12 94 -15z"/>
<path d="M1974 2216 c-3 -7 -4 -204 -2 -437 3 -407 4 -425 24 -459 49 -84 150 -80 247 9 24 23 47 41 51 41 3 0 6 -22 6 -50 l0 -50 85 0 85 0 -2 478 -3 477 -82 3 -83 3 0 -367 0 -366 -39 -40 c-33 -32 -46 -39 -73 -36 -31 3 -33 6 -40 48 -3 25 -7 206 -7 403 l-1 357 -80 0 c-59 0 -82 -4 -86 -14z"/>
</g>
</svg>